<svg xmlns="http://www.w3.org/2000/svg" viewBox="0 0 157.46 157.46"><defs><style>.cls-1{fill:#fff;}</style></defs><g id="Layer_2" data-name="Layer 2"><g id="Layer_3" data-name="Layer 3"><path class="cls-1" d="M78.73,0a78.73,78.73,0,1,0,78.73,78.73A78.73,78.73,0,0,0,78.73,0ZM70.18,108.35a2.77,2.77,0,0,1-2.77,2.77H51.78A2.77,2.77,0,0,1,49,108.35V48.64a2.77,2.77,0,0,1,2.77-2.77H67.41a2.77,2.77,0,0,1,2.77,2.77Zm37.8,0a2.77,2.77,0,0,1-2.77,2.77H89.58a2.77,2.77,0,0,1-2.77-2.77V48.64a2.77,2.77,0,0,1,2.77-2.77h15.63A2.77,2.77,0,0,1,108,48.64Z"/></g></g></svg>